# xmcd
#
# Track frame offsets:
#	150
#	11425
#	24365
#	46203
#	59353
#	73360
#	86087
#	99476
#	113841
#	127577
#	143476
#	155829
#	169659
#
# Disc length: 2492 seconds
#
# Revision: 1
# Processed by: cddbd v1.5.2PL0 Copyright (c) Steve Scherf et al.
# Submitted via: audiograbber 1.83.01
#
DISCID=a309ba0d
DTITLE=Chris Jones - Live in Holland
DYEAR=2004
DGENRE=Country
TTITLE0=Nashville Blues
TTITLE1=The way i am
TTITLE2=Fork in the road
TTITLE3=This weary heart you stole away
TTITLE4=Drinking from this fountain
TTITLE5=I've covered my tracks
TTITLE6=I'm ready if you're willin'
TTITLE7=Alone with you
TTITLE8=Brand new pair of shoes
TTITLE9=Cabin on the hill
TTITLE10=Cloudy days
TTITLE11=Whispering now
TTITLE12=Diesel smoke on danger road
EXTD=
EXTT0=
EXTT1=
EXTT2=
EXTT3=
EXTT4=
EXTT5=
EXTT6=
EXTT7=
EXTT8=
EXTT9=
EXTT10=
EXTT11=
EXTT12=
PLAYORDER=
